<svg width="31" height="42" viewBox="0 0 31 42" fill="none" xmlns="http://www.w3.org/2000/svg">
<path d="M1.6918 0.845888V2.7012L28.6306 2.7012C29.8845 2.7012 30.9046 3.72135 30.9046 4.97514V9.12207C30.9046 10.3759 29.8844 11.396 28.6306 11.396L1.6918 11.396V16.107H16.4252C17.6791 16.107 18.6992 17.1271 18.6992 18.3809L18.6992 22.5279C18.6992 23.7817 17.679 24.8018 16.4252 24.8018H1.6918L1.6918 29.5128H9.32214C10.576 29.5128 11.5961 30.5329 11.5961 31.7867V35.9338C11.5961 37.1876 10.5759 38.2077 9.32214 38.2077L1.6918 38.2077V40.1631C1.6918 40.6303 1.31309 41.009 0.845897 41.009C0.378708 41.009 -1.01829e-06 40.6303 -1.01829e-06 40.1631L-1.01829e-06 0.845888C-1.01829e-06 0.378698 0.378708 -1.03603e-05 0.845897 -1.03603e-05C1.31309 -1.03603e-05 1.6918 0.378698 1.6918 0.845888ZM1.6918 31.2048V36.516L9.32214 36.516C9.64316 36.516 9.90429 36.2549 9.90429 35.9338V31.7869C9.90429 31.4659 9.64316 31.2048 9.32214 31.2048H1.6918ZM1.6918 17.7989V23.1101H16.4252C16.7462 23.1101 17.0074 22.849 17.0074 22.528L17.0074 18.381C17.0074 18.0601 16.7462 17.7989 16.4252 17.7989H1.6918ZM1.6918 4.39299V9.70422L28.6306 9.70422C28.9516 9.70422 29.2128 9.44309 29.2128 9.12207V4.97514C29.2128 4.65412 28.9516 4.39299 28.6306 4.39299L1.6918 4.39299Z" fill="#2AA7F3"/>
</svg>
