<svg width="47" height="47" viewBox="0 0 47 47" fill="none" xmlns="http://www.w3.org/2000/svg">
<path d="M41.4922 3.67188H39.2891V0H35.6172V3.67188H11.3828V0H7.71094V3.67188H5.50781C2.4708 3.67188 0 6.14268 0 9.17969V41.4922C0 44.5292 2.4708 47 5.50781 47H17.7168H17.9922H24.3961C23.1268 45.9522 22.0212 44.7132 21.1224 43.3281H17.9922H17.7168H5.50781C4.49548 43.3281 3.67188 42.5045 3.67188 41.4922V17.2578H43.3281V20.9297V21.1133V21.1224C44.7132 22.0212 45.9522 23.1268 47 24.3961V21.1133V20.9297V9.17969C47 6.14268 44.5292 3.67188 41.4922 3.67188ZM43.3281 13.5859H3.67188V9.17969C3.67188 8.16735 4.49548 7.34375 5.50781 7.34375H7.71094V11.0156H11.3828V7.34375H35.6172V11.0156H39.2891V7.34375H41.4922C42.5045 7.34375 43.3281 8.16735 43.3281 9.17969V13.5859Z" fill="#2AA7F3"/>
<path d="M34.6074 22.2148C27.7742 22.2148 22.2148 27.7742 22.2148 34.6074C22.2148 41.4407 27.7742 47 34.6074 47C41.4407 47 47 41.4407 47 34.6074C47 27.7742 41.4407 22.2148 34.6074 22.2148ZM34.6074 43.3281C29.7988 43.3281 25.8867 39.416 25.8867 34.6074C25.8867 29.7988 29.7988 25.8867 34.6074 25.8867C39.416 25.8867 43.3281 29.7988 43.3281 34.6074C43.3281 39.416 39.416 43.3281 34.6074 43.3281Z" fill="#2AA7F3"/>
<path d="M36.3516 28.457H32.6797V36.4434H39.4727V32.7715H36.3516V28.457Z" fill="#2AA7F3"/>
</svg>
