<svg width="67" height="53" viewBox="0 0 67 53" fill="none" xmlns="http://www.w3.org/2000/svg">
<path fill-rule="evenodd" clip-rule="evenodd" d="M10.0496 16.5625C10.0496 20.2162 13.0545 23.1875 16.7494 23.1875C20.4443 23.1875 23.4492 20.2162 23.4492 16.5625C23.4492 12.9088 20.4443 9.9375 16.7494 9.9375C13.0545 9.9375 10.0496 12.9088 10.0496 16.5625ZM13.3995 16.5625C13.3995 14.7373 14.9036 13.25 16.7494 13.25C18.5952 13.25 20.0993 14.7373 20.0993 16.5625C20.0993 18.3877 18.5952 19.875 16.7494 19.875C14.9036 19.875 13.3995 18.3877 13.3995 16.5625Z" fill="#2AA7F3"/>
<path fill-rule="evenodd" clip-rule="evenodd" d="M6.69976 53H60.2979C63.9928 53 66.9976 50.0287 66.9976 46.375V41.4951C67.0008 41.4362 67.0008 41.3771 66.9976 41.3181V6.625C66.9976 2.97131 63.9928 0 60.2979 0H6.69976C3.00484 0 0 2.97131 0 6.625V46.375C0 50.0287 3.00484 53 6.69976 53ZM63.6477 46.375V42.0185L46.5332 22.2732C46.2083 21.9022 45.7594 21.6969 45.2602 21.6969C44.9119 21.6671 44.2988 21.9056 43.9739 22.2931L30.7196 38.0189L42.0486 49.6875H60.2979C62.1436 49.6875 63.6477 48.2002 63.6477 46.375ZM37.4774 49.6875H6.69976C5.52658 49.6875 4.49143 49.0866 3.8928 48.1801L18.9134 33.3271C19.5466 32.7043 20.6487 32.7043 21.2818 33.3271L27.2881 39.2664C27.3824 39.3605 27.4864 39.4429 27.5978 39.5118L37.4774 49.6875ZM49.0758 20.1168L63.6477 36.9287V6.625C63.6477 4.79981 62.1436 3.3125 60.2979 3.3125H6.69976C4.85398 3.3125 3.34988 4.79981 3.34988 6.625V44.0331L16.5451 30.9851C18.4411 29.1102 21.7541 29.1102 23.6502 30.9851L28.3601 35.6425L41.3978 20.1731C42.3459 19.0502 43.7394 18.3976 45.2234 18.3844H45.2602C46.7275 18.3844 48.1177 19.0137 49.0758 20.1168Z" fill="#2AA7F3"/>
</svg>
