<svg width="52" height="51" viewBox="0 0 52 51" fill="none" xmlns="http://www.w3.org/2000/svg">
<path d="M46.397 0.873871H5.603C2.51328 0.873871 0 3.29658 0 6.27496V45.5989C0 48.5769 2.51328 51 5.603 51H46.397C49.4863 51 52 48.5769 52 45.5989V6.27496C52 3.29658 49.4863 0.873871 46.397 0.873871V0.873871ZM48.9531 45.5989C48.9531 46.9577 47.8066 48.0629 46.397 48.0629H5.603C4.19342 48.0629 3.04688 46.9577 3.04688 45.5989V6.27496C3.04688 4.91618 4.19342 3.81095 5.603 3.81095H46.397C47.8066 3.81095 48.9531 4.91618 48.9531 6.27496V45.5989Z" fill="#2AA7F3"/>
<path d="M17.8575 21.9336C19.2445 21.9336 19.5056 22.7517 19.5547 23.4909C19.571 23.9785 20.0439 24.1357 20.6152 24.1357C21.317 24.1357 21.6761 23.9471 21.6761 23.1605C21.6761 21.2728 20.0276 20.14 17.7758 20.14C15.7033 20.14 14.0224 21.1152 14.0224 23.7425V28.1313C14.0224 30.7583 15.687 31.7335 17.8413 31.7335C19.9951 31.7335 21.6761 30.7583 21.6761 28.1313V26.2593C21.6761 25.9132 21.4313 25.5985 21.0072 25.5985H18.2328C17.8087 25.5985 17.5802 26.0077 17.5802 26.4008C17.5802 26.81 17.8087 27.2032 18.2328 27.2032H19.5547V28.1313C19.5547 29.3582 18.9021 29.9402 17.8413 29.9402C16.7642 29.9402 16.1441 29.3582 16.1441 28.1313V23.7422C16.1441 22.5157 16.7642 21.9336 17.8575 21.9336V21.9336Z" fill="#2AA7F3"/>
<path d="M26.0484 20.1404C25.51 20.1404 24.9879 20.329 24.9879 20.7695V30.9942C24.9879 31.4191 25.5104 31.6394 26.0484 31.6394C26.5709 31.6394 27.1093 31.4191 27.1093 30.9942V20.7695C27.1093 20.329 26.5709 20.1404 26.0484 20.1404Z" fill="#2AA7F3"/>
<path d="M37.3246 20.1404H31.6292C31.1563 20.1404 30.6992 20.3603 30.6992 20.7852V30.9942C30.6992 31.4191 31.2213 31.6394 31.7597 31.6394C32.2822 31.6394 32.8206 31.4191 32.8206 30.9942V26.6842H35.3172C35.7742 26.6842 35.9698 26.2593 35.9698 25.8975C35.9698 25.473 35.7413 25.0799 35.3172 25.0799H32.8206V21.9336H37.3246C37.7487 21.9336 37.9772 21.5088 37.9772 21.0212C37.9772 20.5967 37.7813 20.1404 37.3246 20.1404V20.1404Z" fill="#2AA7F3"/>
</svg>
