<svg width="48" height="48" viewBox="0 0 48 48" fill="none" xmlns="http://www.w3.org/2000/svg">
<path d="M24 0C10.7452 0 0 10.7452 0 24C0 37.2548 10.7452 48 24 48C37.2548 48 48 37.2548 48 24C48 10.7452 37.2548 0 24 0ZM24 45C12.402 45 3 35.598 3 24C3 12.402 12.402 3 24 3C35.598 3 45 12.402 45 24C45 35.598 35.598 45 24 45Z" fill="#2AA7F3"/>
<path d="M16.5 19.5C18.1569 19.5 19.5 18.1569 19.5 16.5C19.5 14.8431 18.1569 13.5 16.5 13.5C14.8431 13.5 13.5 14.8431 13.5 16.5C13.5 18.1569 14.8431 19.5 16.5 19.5Z" fill="#2AA7F3"/>
<path d="M31.5 19.5C33.1569 19.5 34.5 18.1569 34.5 16.5C34.5 14.8431 33.1569 13.5 31.5 13.5C29.8431 13.5 28.5 14.8431 28.5 16.5C28.5 18.1569 29.8431 19.5 31.5 19.5Z" fill="#2AA7F3"/>
<path d="M34.5 24C34.5 29.799 29.799 34.5 24 34.5C18.201 34.5 13.5 29.799 13.5 24H10.5C10.5 31.4558 16.5442 37.5 24 37.5C31.4558 37.5 37.5 31.4558 37.5 24H34.5Z" fill="#2AA7F3"/>
</svg>
