<svg width="46" height="46" viewBox="0 0 46 46" fill="none" xmlns="http://www.w3.org/2000/svg">
<path fill-rule="evenodd" clip-rule="evenodd" d="M34.304 27.0783C33.7291 27.4195 32.9862 27.2299 32.6452 26.6551C32.304 26.0801 32.4936 25.3375 33.0683 24.9963C34.4482 24.1775 35.9065 23.5095 37.4179 22.9992C30.654 20.7048 25.2937 15.3438 23 8.57961C20.7061 15.3445 15.3445 20.7061 8.57961 23C15.3438 25.2937 20.7048 30.654 22.9992 37.418C23.5095 35.9065 24.1775 34.4482 24.9963 33.0684C25.3373 32.4936 26.0797 32.3037 26.6551 32.6452C27.2299 32.9864 27.4194 33.729 27.0783 34.304C25.2022 37.4657 24.2105 41.0914 24.2105 44.7895C24.2105 45.4579 23.6686 46 23 46C22.3314 46 21.7895 45.4579 21.7895 44.7895C21.7895 33.4422 12.5578 24.2105 1.21053 24.2105C0.541953 24.2105 0 23.6685 0 23C0 22.3315 0.541953 21.7895 1.21053 21.7895C12.5578 21.7895 21.7895 12.5578 21.7895 1.21053C21.7895 0.542074 22.3314 0 23 0C23.6686 0 24.2105 0.542074 24.2105 1.21053C24.2105 12.5578 33.4422 21.7895 44.7895 21.7895C45.4579 21.7895 46 22.3315 46 23C46 23.6685 45.4579 24.2105 44.7895 24.2105C41.0914 24.2105 37.4657 25.2022 34.304 27.0783ZM7.12395 14.2055C7.12395 11.1885 4.6694 8.73394 1.65237 8.73394C1.27469 8.73394 0.968419 8.42767 0.968419 8.05C0.968419 7.67232 1.27469 7.36605 1.65237 7.36605C4.6694 7.36605 7.12395 4.9115 7.12395 1.89447C7.12395 1.5168 7.43022 1.21052 7.80789 1.21052C8.18557 1.21052 8.49184 1.5168 8.49184 1.89447C8.49184 4.9115 10.9464 7.36605 13.9634 7.36605C14.3411 7.36605 14.6474 7.67232 14.6474 8.05C14.6474 8.42767 14.3411 8.73394 13.9634 8.73394C10.9464 8.73394 8.49184 11.1885 8.49184 14.2055C8.49184 14.5832 8.18557 14.8895 7.80789 14.8895C7.43022 14.8895 7.12395 14.5832 7.12395 14.2055ZM10.9834 8.05C9.60216 7.37857 8.47926 6.25566 7.80789 4.8745C7.13653 6.25573 6.01363 7.37863 4.63239 8.05C6.01363 8.72143 7.13653 9.84433 7.80789 11.2255C8.47932 9.84426 9.60223 8.72136 10.9834 8.05ZM10.0534 38.5613C10.0534 36.7191 8.55463 35.2203 6.71237 35.2203C6.48175 35.2203 6.29474 35.0332 6.29474 34.8026C6.29474 34.572 6.48175 34.385 6.71237 34.385C8.55463 34.385 10.0534 32.8862 10.0534 31.0439C10.0534 30.8133 10.2404 30.6263 10.4711 30.6263C10.7017 30.6263 10.8887 30.8133 10.8887 31.0439C10.8887 32.8862 12.3875 34.385 14.2297 34.385C14.4604 34.385 14.6474 34.572 14.6474 34.8026C14.6474 35.0332 14.4604 35.2203 14.2297 35.2203C12.3875 35.2203 10.8887 36.7191 10.8887 38.5613C10.8887 38.7919 10.7017 38.9789 10.4711 38.9789C10.2404 38.9789 10.0534 38.7919 10.0534 38.5613ZM12.4101 34.8026C11.5667 34.3926 10.881 33.707 10.4711 32.8636C10.0611 33.707 9.37544 34.3927 8.53203 34.8026C9.37544 35.2126 10.0611 35.8983 10.4711 36.7416C10.881 35.8982 11.5667 35.2126 12.4101 34.8026ZM29.4158 30.6263C30.0843 30.6263 30.6263 30.0843 30.6263 29.4158C30.6263 28.7472 30.0843 28.2053 29.4158 28.2053C28.7472 28.2053 28.2053 28.7472 28.2053 29.4158C28.2053 30.0843 28.7472 30.6263 29.4158 30.6263Z" fill="#2AA7F3"/>
</svg>
